<svg width="41" height="40" viewBox="0 0 41 40" fill="none" xmlns="http://www.w3.org/2000/svg">
<ellipse cx="20.1639" cy="20" rx="20.1639" ry="20" fill="#801ED7"/>
<path fill-rule="evenodd" clip-rule="evenodd" d="M20.2195 6.08524C12.5946 6.08524 6.41336 12.2664 6.41336 19.8913C6.41336 27.5163 12.5946 33.6975 20.2195 33.6975C27.8444 33.6975 34.0256 27.5163 34.0256 19.8913C34.0256 12.2664 27.8444 6.08524 20.2195 6.08524ZM3.60669 19.8913C3.60669 10.7164 11.0445 3.27856 20.2195 3.27856C29.3945 3.27856 36.8322 10.7164 36.8322 19.8913C36.8322 29.0663 29.3945 36.5041 20.2195 36.5041C11.0445 36.5041 3.60669 29.0663 3.60669 19.8913Z" fill="white"/>
<path d="M21.4507 30.2489C24.3614 29.9257 26.1278 27.2467 26.8766 25.8624C27.6117 24.4672 28.03 22.9787 28.1975 21.5347C28.2564 21.0974 28.289 20.7099 28.298 20.3495C28.3279 19.1961 28.1523 18.2092 27.762 17.3301C26.9155 15.4261 25.4262 14.4283 23.3347 14.365C22.3017 14.3333 21.2795 14.5614 20.366 15.0232C20.5905 14.135 21.2325 11.4859 21.5846 8.88653C21.639 8.48725 21.5312 8.10428 21.2832 7.80822C21.0369 7.51307 20.6811 7.34195 20.2818 7.32475C19.5421 7.29125 18.9192 7.81999 18.8242 8.55063C18.2936 12.6511 17.0306 17.9521 15.6816 21.742C14.9808 23.7112 13.6581 25.3391 11.8573 26.4491C11.793 26.4889 11.7015 26.5378 11.5866 26.5957C10.9265 26.928 10.6205 27.6967 10.8758 28.3829C11.0171 28.7632 11.314 29.0674 11.6916 29.2186C12.0691 29.3689 12.4937 29.3535 12.8577 29.1751C13.9831 28.6247 14.9799 27.8949 15.8219 27.0059C16.8676 29.2657 18.6114 30.5631 21.4497 30.248L21.4507 30.2489ZM19.1419 26.7216C18.6413 26.2363 18.3434 25.588 18.2565 24.7967C18.0138 22.6039 18.6603 20.5831 20.1786 18.7905C20.5697 18.3287 21.0206 17.9575 21.5186 17.6877C21.9595 17.4487 22.4266 17.3337 22.8757 17.3337C23.6688 17.3337 24.404 17.6931 24.8304 18.3613C25.1709 18.8946 25.3564 19.5311 25.3972 20.3061C25.4126 20.6039 25.4044 20.9081 25.3972 21.1526C25.3945 21.244 25.3927 21.3282 25.3918 21.3998C25.093 23.455 24.3343 25.0095 23.0034 26.2933C22.5199 26.7596 22.021 27.0665 21.4778 27.2295C20.5471 27.5102 19.782 27.3436 19.1419 26.7216Z" fill="white"/>
</svg>
